<svg width="24" height="24" viewBox="0 0 24 24" fill="none" xmlns="http://www.w3.org/2000/svg">
<path fill-rule="evenodd" clip-rule="evenodd" d="M11.889 12.6187H11.921C14.849 12.6187 17.23 10.2377 17.23 7.30973C17.23 4.38173 14.849 1.99973 11.921 1.99973C8.99202 1.99973 6.61002 4.38173 6.61002 7.30673C6.60002 10.2267 8.96702 12.6097 11.889 12.6187ZM8.03802 7.30973C8.03802 5.16873 9.78002 3.42773 11.921 3.42773C14.061 3.42773 15.802 5.16873 15.802 7.30973C15.802 9.44973 14.061 11.1917 11.921 11.1917H11.892C9.76002 11.1837 8.03102 9.44373 8.03802 7.30973Z" fill="black"/>
<path fill-rule="evenodd" clip-rule="evenodd" d="M4 18.1731C4 21.8701 9.962 21.8701 11.921 21.8701C15.32 21.8701 19.84 21.4891 19.84 18.1931C19.84 14.4961 13.88 14.4961 11.921 14.4961C8.521 14.4961 4 14.8771 4 18.1731ZM5.5 18.1731C5.5 16.7281 7.66 15.9961 11.921 15.9961C16.181 15.9961 18.34 16.7351 18.34 18.1931C18.34 19.6381 16.181 20.3701 11.921 20.3701C7.66 20.3701 5.5 19.6311 5.5 18.1731Z" fill="black"/>
</svg>
